<?xml version="1.0" standalone="no"?>
<!DOCTYPE svg PUBLIC "-//W3C//DTD SVG 20010904//EN"
 "http://www.w3.org/TR/2001/REC-SVG-20010904/DTD/svg10.dtd">
<svg version="1.0" xmlns="http://www.w3.org/2000/svg"
 width="1280.000000pt" height="1280.000000pt" viewBox="0 0 1280.000000 1280.000000"
 preserveAspectRatio="xMidYMid meet">
<metadata>
Created by potrace 1.14, written by Peter Selinger 2001-2017
</metadata>
<g transform="translate(0.000000,1280.000000) scale(0.100000,-0.100000)"
fill="#000000" stroke="none">
<path d="M6254 12503 c-21 -21 -85 -91 -142 -155 -106 -121 -193 -190 -260
-207 -21 -6 -102 -15 -182 -21 -80 -6 -156 -14 -170 -17 -65 -15 -124 -59
-246 -181 -148 -148 -189 -173 -329 -196 -51 -9 -101 -24 -115 -34 -61 -46
-83 -134 -99 -407 -22 -363 -33 -484 -61 -685 -16 -113 -34 -257 -41 -320 -6
-63 -13 -118 -15 -122 -2 -3 -27 -11 -55 -17 -64 -14 -96 -31 -136 -73 -98
-102 -112 -330 -28 -460 48 -73 98 -108 195 -139 51 -16 55 -19 53 -46 -12
-159 -14 -359 -4 -420 20 -130 81 -254 142 -290 34 -20 35 -33 13 -117 -9 -34
-17 -103 -18 -156 -1 -78 3 -102 20 -134 23 -45 73 -76 122 -76 18 0 35 -6 38
-14 3 -7 -4 -41 -15 -74 -50 -147 -17 -235 113 -305 61 -32 75 -48 101 -110
14 -35 14 -38 -2 -43 -174 -59 -598 -238 -876 -370 -585 -277 -934 -487 -1220
-733 -277 -238 -384 -523 -476 -1266 -66 -529 -91 -1049 -90 -1925 0 -569 12
-941 34 -1085 77 -493 285 -772 645 -866 160 -41 412 -37 665 12 55 10 106 19
112 19 10 0 12 -33 8 -137 -3 -76 -7 -407 -10 -735 l-5 -598 2514 0 2515 0 5
43 c6 38 21 389 61 1367 8 201 18 413 21 473 l7 107 36 0 c127 0 526 23 626
36 423 53 665 211 794 514 38 88 74 221 93 340 17 112 17 855 0 1105 -33 468
-65 750 -118 1040 -127 698 -330 1287 -568 1645 -89 134 -283 330 -411 416
-234 157 -391 221 -970 395 -404 122 -595 186 -815 276 -102 42 -187 78 -190
80 -2 2 17 22 43 44 63 54 93 109 107 194 19 119 33 145 120 224 44 40 92 92
106 117 34 58 41 138 20 227 -23 99 -20 149 19 285 46 166 51 220 30 320 -15
68 -16 91 -6 139 6 31 11 75 11 98 l0 42 88 5 c203 13 330 121 308 262 -11 68
-47 135 -94 177 -46 40 -123 69 -267 101 l-60 13 -7 50 c-4 28 -24 154 -43
280 -20 127 -53 349 -75 495 -51 354 -57 369 -198 547 -43 54 -120 155 -170
225 -51 70 -118 149 -149 175 -116 99 -136 121 -231 248 -57 75 -115 142 -140
160 -49 34 -72 36 -250 21 l-103 -9 -67 69 c-37 39 -87 97 -112 129 -59 78
-89 83 -146 28z m115 -167 c124 -155 164 -171 382 -153 95 8 97 8 129 -19 17
-15 72 -80 120 -144 52 -69 130 -156 190 -211 56 -52 125 -125 154 -164 29
-38 85 -113 124 -165 40 -52 94 -124 122 -159 28 -35 49 -66 46 -69 -3 -2 -52
27 -108 65 -110 73 -212 121 -336 156 -69 19 -101 21 -322 21 -257 -1 -465
-19 -740 -66 -88 -15 -171 -22 -280 -22 -151 -1 -158 0 -265 34 -138 44 -247
47 -335 9 -167 -71 -292 -183 -359 -321 -51 -106 -61 -165 -33 -191 23 -21 61
-19 73 3 5 8 18 40 29 71 51 141 148 249 286 319 98 50 149 50 339 0 158 -42
161 -42 290 -37 72 3 200 17 285 31 347 58 813 85 945 56 149 -32 291 -97 413
-189 68 -52 86 -61 121 -61 25 0 43 -5 45 -12 2 -7 16 -101 30 -208 15 -107
44 -307 66 -445 22 -137 44 -291 51 -341 l11 -92 -36 -38 c-35 -37 -107 -125
-197 -241 -26 -33 -43 -66 -46 -90 -4 -34 0 -45 36 -91 23 -28 41 -56 41 -62
0 -6 -12 -39 -26 -73 -22 -51 -28 -83 -32 -177 -5 -113 -5 -115 -38 -153 -44
-48 -45 -83 -4 -117 l31 -25 -20 -45 c-13 -28 -21 -66 -21 -103 0 -32 -5 -78
-11 -103 -10 -39 -20 -51 -69 -84 -55 -38 -120 -102 -120 -120 0 -4 11 -22 25
-38 14 -17 25 -32 25 -35 0 -3 -35 -30 -79 -61 -85 -59 -124 -108 -114 -144 8
-31 -3 -66 -32 -101 -20 -23 -48 -37 -123 -60 -110 -34 -145 -61 -145 -112 0
-32 16 -50 107 -126 28 -23 36 -70 12 -79 -7 -3 -62 4 -120 15 -59 12 -120 21
-137 21 -16 0 -32 6 -35 13 -9 25 44 156 85 207 45 57 49 74 24 102 -14 16
-33 18 -147 18 -366 -1 -506 -44 -506 -155 0 -82 110 -200 261 -280 37 -19 71
-41 78 -49 6 -7 12 -44 14 -82 3 -89 -12 -93 -89 -21 -86 80 -131 107 -174
107 -49 0 -72 -26 -78 -90 l-5 -51 -31 7 c-43 9 -41 6 -65 72 -35 98 -48 109
-136 114 -105 7 -132 36 -195 208 -39 105 -52 120 -102 120 -32 0 -40 4 -48
24 -11 29 -39 40 -81 31 -30 -7 -31 -6 -24 23 11 53 -7 72 -70 72 -32 0 -55 4
-55 10 0 6 14 37 30 69 34 64 46 116 36 154 -8 33 -52 74 -87 82 -40 9 -43 18
-24 75 9 27 14 59 10 70 -7 23 -43 44 -92 55 -35 7 -55 25 -29 25 27 0 85 60
92 95 12 66 -32 112 -224 230 l-93 58 6 51 c8 61 -8 132 -33 145 -11 6 -29 4
-51 -5 -18 -8 -37 -14 -41 -14 -4 0 -10 28 -12 63 -4 53 -13 75 -56 147 -28
47 -56 91 -62 98 -15 17 -65 15 -80 -3 -29 -35 -127 -2 -177 60 -69 83 -82
229 -30 318 29 48 55 63 132 72 99 12 103 14 109 48 3 18 12 93 20 167 9 74
29 234 46 354 19 140 36 320 45 495 17 309 30 443 48 481 10 21 22 26 72 33
88 12 183 44 240 80 28 17 111 91 185 163 91 88 146 134 170 142 19 6 96 13
170 15 237 9 310 47 504 265 60 67 112 122 117 122 4 0 30 -29 58 -64z m1754
-2406 c126 -47 179 -187 92 -244 -31 -20 -118 -43 -192 -51 l-63 -6 0 143 c0
79 -3 154 -7 167 -6 24 -6 24 54 18 34 -4 86 -16 116 -27z m-273 -140 c0 -68
-13 -77 -35 -23 -15 35 -14 37 7 60 12 12 23 23 25 23 2 0 3 -27 3 -60z m-62
-140 c-10 -31 -28 -50 -28 -30 0 11 29 60 36 60 1 0 -2 -14 -8 -30z m69 -207
c-3 -10 -5 -2 -5 17 0 19 2 27 5 18 2 -10 2 -26 0 -35z m-103 -138 c8 -32 1
-45 -25 -45 -22 0 -24 9 -7 45 14 32 24 32 32 0z m-3008 -204 c5 -5 23 -11 39
-13 33 -3 32 -1 19 -113 -3 -28 -1 -74 4 -103 12 -69 -3 -65 -41 10 -26 51
-61 211 -49 223 8 7 17 6 28 -4z m3101 -44 c14 -14 4 -68 -13 -74 -8 -3 -54
76 -54 93 0 10 54 -6 67 -19z m-2862 -81 c18 -13 17 -14 -14 -30 -38 -20 -46
-16 -37 19 7 28 23 32 51 11z m186 -116 c27 -15 24 -27 -11 -45 -39 -20 -41
-19 -34 13 11 46 14 48 45 32z m-181 -99 c0 -7 -15 -54 -35 -110 -4 -11 -8
-11 -20 -1 -23 19 -18 68 10 95 24 25 45 32 45 16z m2814 -125 l7 -38 -31 22
c-43 30 -47 47 -19 76 l24 25 6 -23 c3 -13 9 -40 13 -62z m-2651 -32 c79 -25
76 -35 -23 -66 -72 -23 -93 -23 -86 0 3 9 8 31 12 47 9 40 14 47 28 42 6 -2
37 -13 69 -23z m2447 -54 c30 -30 17 -40 -51 -40 -67 0 -74 11 -26 40 40 25
52 25 77 0z m-2680 -71 c0 -9 -7 -33 -15 -52 -8 -20 -15 -48 -15 -63 0 -22 -2
-25 -15 -14 -16 13 -20 93 -8 163 l6 39 23 -29 c13 -15 23 -35 24 -44z m224
-58 c8 -12 -9 -100 -22 -113 -13 -13 -115 38 -110 55 4 11 103 67 119 67 4 0
10 -4 13 -9z m164 -31 c30 -28 28 -47 -9 -81 -45 -42 -63 -39 -55 9 3 20 6 49
6 65 0 33 26 36 58 7z m2149 -66 c-3 -3 -12 -4 -19 -1 -8 3 -5 6 6 6 11 1 17
-2 13 -5z m-2388 -213 c1 -77 30 -129 101 -185 52 -41 60 -52 66 -91 5 -35 15
-53 45 -80 22 -19 42 -35 47 -35 4 0 13 -4 20 -9 12 -7 11 -14 -3 -41 -21 -40
-14 -70 22 -92 26 -16 26 -17 6 -18 -30 0 -60 43 -131 190 -60 125 -60 125
-121 160 -111 63 -114 66 -109 124 3 28 13 78 23 111 14 48 19 56 26 40 4 -11
8 -44 8 -74z m165 -34 c29 -77 17 -88 -33 -32 -34 40 -36 46 -19 63 21 21 35
13 52 -31z m2314 -38 c1 -9 -6 -27 -17 -40 -19 -23 -20 -23 -27 -5 -4 11 -16
28 -26 38 -10 10 -18 30 -18 44 l0 25 42 -23 c24 -13 44 -30 46 -39z m-2164
-19 c3 -16 9 -43 12 -60 5 -25 2 -30 -14 -30 -26 0 -33 21 -25 75 7 52 19 58
27 15z m1731 -71 c-33 -29 -38 -31 -61 -19 -43 23 -13 47 64 49 l33 1 -36 -31z
m253 -81 c-5 -16 -51 -22 -87 -13 -24 7 -25 8 -6 15 33 14 97 12 93 -2z
m-1880 -82 c3 -15 1 -16 -17 -6 -12 6 -19 16 -15 21 9 15 28 5 32 -15z m196
-8 c19 -27 19 -43 2 -83 l-12 -29 -32 56 c-18 30 -32 61 -32 67 0 21 58 12 74
-11z m1534 -68 c-5 -17 -14 -30 -19 -30 -14 0 -11 58 4 63 21 8 26 -3 15 -33z
m-1678 -32 c0 -13 -30 -22 -40 -12 -4 5 -4 20 2 34 9 24 10 24 24 6 8 -11 14
-24 14 -28z m1795 -26 c-11 -70 -70 -137 -135 -157 -20 -6 -13 5 35 56 33 36
69 84 79 107 23 50 30 48 21 -6z m-616 -31 c8 -5 9 -11 3 -15 -14 -8 -43 4
-36 15 7 11 15 11 33 0z m-732 -96 c12 -38 21 -70 19 -73 -16 -15 -106 92
-106 126 0 10 34 21 54 17 5 0 20 -32 33 -70z m-370 11 c-7 -18 -47 -22 -47
-5 0 6 5 20 11 31 10 18 12 19 26 5 9 -9 13 -23 10 -31z m757 -88 c68 -77 56
-82 -19 -8 -36 35 -65 68 -65 73 0 16 40 -14 84 -65z m486 42 c0 -21 -61 -131
-75 -137 -24 -9 -61 5 -94 36 -44 41 -40 51 17 44 44 -5 51 -2 91 31 44 37 61
44 61 26z m156 -42 l16 -31 -63 -58 c-35 -32 -67 -58 -72 -59 -4 0 2 17 12 39
11 21 32 64 45 96 27 60 37 62 62 13z m-1248 -1 c6 -7 16 -34 23 -61 10 -40
10 -50 -2 -57 -25 -15 -36 -10 -91 40 l-53 49 45 21 c53 24 64 25 78 8z m-170
-132 c40 -36 86 -72 102 -80 33 -17 135 -20 145 -5 10 17 18 12 85 -45 165
-140 316 -168 440 -84 92 62 94 63 158 39 33 -13 93 -24 142 -27 111 -7 174
11 257 74 34 27 99 76 143 111 45 34 86 60 91 57 12 -8 11 -125 -2 -205 -50
-310 -260 -547 -563 -634 -160 -47 -331 -43 -496 11 -251 82 -455 294 -566
590 -30 80 -76 261 -69 273 11 17 61 -11 133 -75z m532 47 c-5 -9 -21 -30 -35
-47 l-25 -30 0 37 c0 31 5 40 27 52 33 17 47 12 33 -12z m250 -102 c0 -15 -5
-12 -26 11 -19 22 -19 22 4 10 12 -6 22 -16 22 -21z m362 -20 c46 0 32 -18
-20 -25 -41 -5 -102 6 -102 19 0 3 4 16 10 31 l10 26 37 -26 c21 -14 50 -25
65 -25z m-465 -63 c-7 -22 -137 -20 -137 2 0 4 14 27 31 51 l32 44 39 -43 c22
-23 38 -47 35 -54z m4134 -2453 c27 -157 74 -710 90 -1064 25 -558 -9 -885
-118 -1110 -38 -79 -59 -107 -132 -180 -54 -53 -109 -98 -149 -118 -194 -103
-462 -146 -907 -146 -320 0 -531 14 -1685 109 -234 19 -657 53 -940 75 -283
23 -524 45 -535 49 -16 7 -3 16 75 53 52 25 239 114 415 198 827 393 1310 587
1755 704 184 49 325 73 519 90 176 16 199 24 188 68 -4 12 -31 63 -62 111 -31
49 -65 110 -76 135 -40 92 -103 366 -144 618 l-6 40 143 1 c250 1 468 47 828
173 482 169 696 240 715 238 14 -2 21 -14 26 -44z m-2156 -713 c181 -48 290
-108 366 -202 49 -61 212 -299 208 -304 -2 -2 -51 -9 -109 -15 -319 -35 -716
-147 -1213 -344 -361 -142 -633 -266 -1487 -676 -1064 -511 -1413 -664 -1819
-799 -353 -118 -562 -156 -811 -148 -260 8 -360 47 -517 202 -81 80 -98 103
-137 186 -56 118 -82 195 -112 334 -32 142 -43 439 -43 1161 l-1 521 349 6
c594 12 1228 51 1489 93 l38 6 -5 -49 -6 -48 -145 4 c-160 4 -229 -8 -320 -54
-105 -53 -197 -178 -231 -315 -30 -122 -7 -376 44 -480 35 -71 69 -85 207 -84
220 1 315 29 1665 489 1002 341 1537 485 1955 524 63 6 133 13 155 15 22 2
121 3 220 1 143 -3 196 -8 260 -24z m-3841 -201 c98 -25 239 -91 342 -160 88
-60 268 -233 262 -252 -9 -27 -652 -229 -852 -267 -107 -21 -240 -27 -263 -13
-35 22 -68 209 -61 341 11 180 97 304 245 351 81 26 226 26 327 0z"/>
<path d="M6073 12013 c-36 -14 -17 -155 37 -267 30 -63 125 -184 171 -219 25
-18 28 -18 58 -3 42 22 39 44 -11 107 -90 110 -101 125 -124 174 -13 28 -30
81 -39 120 -9 38 -21 75 -27 82 -10 13 -42 16 -65 6z"/>
<path d="M6675 11970 c-16 -17 -17 -25 -7 -58 17 -55 101 -170 187 -256 112
-113 243 -169 280 -120 28 37 14 57 -71 101 -93 48 -174 127 -271 264 -63 90
-87 103 -118 69z"/>
<path d="M5500 11790 c-11 -11 -20 -25 -20 -30 0 -45 95 -140 183 -183 74 -36
101 -35 117 2 6 17 9 34 6 39 -3 6 -44 36 -91 67 -47 31 -92 67 -100 79 -13
19 -54 46 -70 46 -3 0 -14 -9 -25 -20z"/>
<path d="M4881 11479 c-41 -39 -12 -107 56 -130 45 -15 83 8 83 50 0 22 -11
37 -47 65 -54 42 -61 43 -92 15z"/>
<path d="M6945 9168 c-18 -6 -123 -11 -270 -12 -262 -1 -302 -8 -345 -63 -19
-25 -20 -25 -84 -12 -102 20 -301 -9 -556 -82 -153 -43 -243 -90 -285 -147
-43 -59 -61 -132 -46 -187 13 -48 44 -85 71 -85 29 0 60 36 60 70 0 40 48 92
110 119 64 27 153 38 405 50 165 7 211 13 264 31 54 19 69 21 101 11 55 -16
161 -13 285 9 402 72 421 75 501 63 91 -13 123 -34 145 -94 12 -31 25 -47 43
-53 42 -16 61 11 61 87 0 113 -68 212 -187 274 -45 23 -68 27 -148 30 -52 1
-108 -3 -125 -9z"/>
<path d="M7110 8889 c-127 -37 -235 -49 -514 -59 l-279 -10 -181 -46 c-181
-46 -312 -63 -495 -64 l-74 0 5 -75 c18 -270 322 -455 752 -455 253 0 461 59
651 186 69 45 172 156 207 220 56 104 78 273 40 307 -23 21 -30 20 -112 -4z
m12 -154 c-9 -76 -90 -191 -186 -263 -307 -228 -861 -251 -1129 -47 -40 31
-127 144 -127 166 0 5 28 9 61 9 91 0 256 27 409 67 108 28 166 36 290 44 409
24 500 31 565 44 39 7 81 12 95 12 22 -2 25 -6 22 -32z"/>
</g>
</svg>
